<svg width="127" height="36" viewBox="0 0 127 36" fill="none" xmlns="http://www.w3.org/2000/svg">
<g filter="url(#filter0_d_1368_3779)">
<path d="M78.9684 4.50167C78.9684 4.43953 78.9524 4.37843 78.9221 4.3242L77.3784 1.56613C77.0572 0.992156 76.4508 0.636638 75.793 0.636638H67.5857C66.5823 0.636638 65.7689 1.45005 65.7689 2.45345V6.05347C64.8245 5.7551 63.0344 5.43191 60.5576 5.57294C59.0237 5.66028 57.8841 5.89747 57.077 6.16483C56.6638 6.30174 56.3283 6.4497 56.0696 6.59491C56.0244 6.4676 55.9632 6.33894 55.8822 6.21724C55.6416 5.85579 55.2345 5.57235 54.6275 5.57235H49.0736C48.4554 5.57235 47.9984 5.90115 47.6937 6.26621C47.5872 6.39385 47.4959 6.52958 47.4189 6.6646C47.2369 6.42755 47.0107 6.17917 46.7448 5.95367C46.2292 5.51634 45.5372 5.14316 44.7097 5.14316C43.8737 5.14316 43.0499 5.59683 42.3906 6.10366C41.9579 6.43633 41.5717 6.81082 41.2679 7.14623C41.1223 6.822 40.9174 6.47132 40.6465 6.15526C40.1772 5.60768 39.4889 5.14316 38.5606 5.14316H33.0066C32.358 5.14316 31.928 5.54124 31.6706 5.96003C31.5692 6.12502 31.4889 6.301 31.4267 6.47348C30.7822 5.89915 29.91 5.53009 29.0579 5.31514C28.1519 5.08663 27.2118 5.01787 26.483 5.08726V4.33928C26.483 3.98 26.306 3.64384 26.0098 3.44054L23.503 1.72004C23.0794 1.42926 22.5776 1.27361 22.0637 1.27361H3.08634C1.88226 1.27361 0.90617 2.24971 0.90617 3.45378V12.997C0.90617 14.2011 1.88227 15.1772 3.08634 15.1772H6.06345V27.3159C6.06345 28.3193 6.87686 29.1328 7.88026 29.1328H17.6079C18.3093 29.1328 18.948 28.729 19.249 28.0955L19.9673 26.5832H20.0855C20.3484 27.1301 20.9644 27.7625 21.9356 28.2794C23.0844 28.8908 24.7668 29.3634 27.0851 29.3634C31.1626 29.3634 33.4251 27.6622 34.5037 26.307C34.7342 26.7896 35.0792 27.3342 35.5481 27.8158C36.252 28.5388 37.25 29.1328 38.5606 29.1328C39.4242 29.1328 40.5234 28.8445 41.5318 28.3129C42.3763 27.8678 43.1858 27.237 43.7442 26.4265C44.5945 27.5296 46.2981 29.1328 49.0736 29.1328C50.6673 29.1328 51.6255 28.617 52.1993 27.8958C52.4841 27.538 52.6621 27.1428 52.7811 26.7714C53.171 27.361 53.7145 27.9085 54.5841 28.3433C55.839 28.9708 57.7407 29.3473 60.7766 29.3473C61.8019 29.3473 63.0699 29.1818 64.2319 28.9085C65.1009 28.7041 65.9411 28.4325 66.5828 28.108C66.6078 28.2997 66.6666 28.5067 66.8198 28.6846C66.9784 28.8687 67.1998 28.9775 67.4632 29.0419C67.7239 29.1056 68.0538 29.1328 68.4658 29.1328H74.8277C75.4671 29.1328 76.0867 28.7308 76.5716 28.3598C76.7658 28.2112 76.9549 28.054 77.1264 27.9114C77.1764 27.8698 77.2249 27.8295 77.2716 27.791C77.4474 27.6459 77.5937 27.5302 77.7147 27.45H78.1045C78.1154 27.5266 78.13 27.6186 78.1543 27.7125C78.2209 27.9691 78.3595 28.2379 78.6784 28.4653C78.9803 28.6806 79.4224 28.8433 80.066 28.955C80.7135 29.0674 81.5933 29.1328 82.7942 29.1328C85.2251 29.1328 87.3366 28.6215 88.9533 27.9805C90.2695 27.4587 91.2827 26.8404 91.8715 26.3231C92.2486 26.8145 92.8077 27.4144 93.495 27.9328C94.3592 28.5847 95.4599 29.1328 96.6792 29.1328C97.9008 29.1328 98.9703 28.583 99.7962 27.9274C100.37 27.4718 100.841 26.9537 101.182 26.5005C101.518 26.9847 102.126 27.4797 103.05 27.9035C104.423 28.5332 106.558 29.039 109.76 29.1326C117.17 29.3493 119.549 26.9631 120.225 25.2551C120.55 24.4348 120.699 23.1014 120.571 21.8179C120.457 20.6713 120.112 19.4664 119.378 18.6995C119.925 17.8981 120.739 16.353 121.051 14.4659C121.405 12.3234 121.111 9.73064 119.04 7.31063C117.325 5.30626 114.575 4.71959 111.982 4.80644C109.586 4.88667 107.236 5.54301 105.775 6.28846C105.55 5.93442 105.122 5.57235 104.415 5.57235H98.4644C97.8054 5.57235 97.346 6.01957 97.0588 6.46214C96.9879 6.57134 96.9241 6.68516 96.867 6.79997C96.8021 6.67995 96.7287 6.56097 96.6464 6.44707C96.317 5.99152 95.8074 5.57235 95.0924 5.57235H88.7449C88.2173 5.57235 87.8598 5.82002 87.649 6.13677C87.6449 6.14302 87.6408 6.14929 87.6367 6.15558C87.5606 6.07972 87.4734 6.00381 87.3737 5.92882C86.9361 5.59998 86.2676 5.29763 85.2412 5.07956C82.4823 4.49342 80.3636 5.3639 78.9684 5.94777V4.50167Z" fill="white" stroke="#25292D" stroke-width="0.726723" stroke-linejoin="round"/>
<path d="M29.0542 14.2326C28.8991 14.1551 28.6976 14.1163 28.4495 14.1163C28.2092 14.1163 27.9418 14.19 27.6472 14.3372C27.3526 14.4768 27.0619 14.6706 26.7751 14.9186C26.1705 15.4458 25.6627 16.0853 25.2519 16.8372C24.841 17.5892 24.6356 18.283 24.6356 18.9186C24.6356 19.5465 24.8759 19.969 25.3565 20.1861C25.5271 20.2636 25.7364 20.3023 25.9844 20.3023C26.2325 20.3023 26.4922 20.2287 26.7635 20.0814C27.0348 19.9264 27.3061 19.7209 27.5774 19.4651C28.1433 18.9302 28.6395 18.283 29.0658 17.5233C29.4922 16.7558 29.7053 16.0698 29.7053 15.4651C29.7053 14.8605 29.4883 14.4496 29.0542 14.2326ZM26.7984 25C24.5813 25 22.6705 24.2984 21.0658 22.8953C19.3527 21.407 18.4961 19.5349 18.4961 17.2791C18.4961 15.0155 19.2984 13.1667 20.9031 11.7326C22.5077 10.2908 24.4883 9.56982 26.8449 9.56982C29.2015 9.56982 31.1821 10.2752 32.7867 11.6861C34.3914 13.0892 35.1976 14.969 35.2053 17.3256C35.2131 18.8372 34.8294 20.1744 34.0542 21.3372C33.279 22.5 32.2441 23.3992 30.9495 24.0349C29.655 24.6705 28.2712 24.9922 26.7984 25Z" fill="#FF73B6" stroke="#961352" stroke-width="0.726237"/>
<path d="M5 7.08936C5 6.48772 5.48772 6 6.08936 6H21.492C22.0936 6 22.5813 6.48772 22.5813 7.08936V10.9339C22.5813 11.5355 22.0936 12.0232 21.492 12.0232H18.4963C17.8946 12.0232 17.4069 12.5109 17.4069 13.1126V23.4803C17.4069 24.082 16.9192 24.5697 16.3176 24.5697H11.2637C10.6621 24.5697 10.1744 24.082 10.1744 23.4803V13.1126C10.1744 12.5109 9.68667 12.0232 9.08504 12.0232H6.08936C5.48772 12.0232 5 11.5355 5 10.9339V7.08936Z" fill="#FF73B6" stroke="#961352" stroke-width="0.726237"/>
<path d="M48.1409 15.0281C48.2764 15.2523 48.6142 15.2065 48.6851 14.9543L49.8214 10.9108C49.9535 10.4409 50.382 10.1162 50.8701 10.1162H54.324C54.8208 10.1162 55.1709 10.6038 55.0121 11.0746L50.6784 23.9215C50.529 24.3644 50.1137 24.6627 49.6462 24.6627H49.0695C48.7118 24.6627 48.3768 24.487 48.1734 24.1927L44.9129 19.475C44.6298 19.0653 44.0276 19.0557 43.7315 19.4562L40.2086 24.2209C40.0031 24.4988 39.6781 24.6627 39.3326 24.6627H38.7205C38.2596 24.6627 37.8486 24.3726 37.6941 23.9384L33.1223 11.0858C32.9541 10.613 33.3047 10.1162 33.8065 10.1162H38.4627C38.9512 10.1162 39.38 10.4415 39.5117 10.9119L40.6667 15.0379C40.7408 15.3028 41.0935 15.355 41.2413 15.123L44.2314 10.4258C44.3541 10.233 44.5669 10.1162 44.7954 10.1162C45.0296 10.1162 45.2466 10.2387 45.3677 10.439L48.1409 15.0281Z" fill="#FF73B6" stroke="#961352" stroke-width="0.726237"/>
<path d="M62.9501 14.2562C62.9501 13.574 62.6323 13.2329 61.9967 13.2329C61.268 13.3027 60.7951 13.6786 60.5781 14.3608C60.4695 14.6864 60.392 15.0662 60.3455 15.5003C60.3367 15.5975 60.3266 15.6962 60.3154 15.7966C60.2578 16.311 60.7153 16.7481 61.2205 16.635L61.7078 16.526C62.3064 16.392 62.7564 15.8964 62.832 15.2876L62.9269 14.5236L62.9501 14.2562ZM61.3804 19.5468C61.3804 19.5468 61.1672 19.5468 60.7409 19.5468C60.5393 19.5468 60.3455 19.5391 60.1595 19.5236C60.1595 20.446 60.6517 20.9499 61.6362 21.0352C61.9075 21.0584 62.1711 21.0701 62.4269 21.0701C63.0858 21.0701 63.9114 20.9189 64.9036 20.6166C65.1395 20.5453 65.3695 20.4634 65.5937 20.371C66.5662 19.9701 67.8445 20.4181 68.0502 21.4497C68.2111 22.2573 67.9381 23.1122 67.2279 23.5289C65.5558 24.5098 63.3043 25.0003 60.4734 25.0003C58.4657 25.0003 56.7409 24.415 55.299 23.2445C53.7331 21.9654 52.9502 20.1941 52.9502 17.9306C52.9502 16.2251 53.3921 14.6941 54.2758 13.3376C55.0975 12.0973 56.2099 11.1554 57.613 10.512C59.0161 9.86858 60.5316 9.54688 62.1595 9.54688C64.268 9.54688 65.861 10.0081 66.9385 10.9306C68.0238 11.8531 68.5625 12.9926 68.5548 14.3492C68.5548 15.7058 67.9075 16.9112 66.6129 17.9654C65.3184 19.0197 63.5742 19.5468 61.3804 19.5468Z" fill="#FF73B6" stroke="#961352" stroke-width="0.726237"/>
<path d="M60.3163 17.2646C60.7992 17.5434 61.3668 17.4857 61.8598 17.2466C62.355 17.0063 62.8147 16.5685 63.1421 16.0013C63.4696 15.4342 63.6189 14.8172 63.5794 14.2682C63.54 13.7217 63.3061 13.2013 62.8232 12.9225C62.3404 12.6437 61.7727 12.7014 61.2798 12.9405C60.7846 13.1808 60.3249 13.6186 59.9974 14.1858C59.67 14.7529 59.5207 15.3699 59.5602 15.9189C59.5996 16.4654 59.8335 16.9858 60.3163 17.2646Z" fill="white" stroke="#961352" stroke-width="0.726237"/>
<path d="M74.9651 23.4803C74.9651 24.082 74.4773 24.5697 73.8757 24.5697H69.4614C68.8598 24.5697 68.3721 24.082 68.3721 23.4803V6.08935C68.3721 5.48772 68.8598 5 69.4614 5H73.8757C74.4773 5 74.9651 5.48772 74.9651 6.08936V23.4803Z" fill="#FF73B6" stroke="#961352" stroke-width="0.726237"/>
<path d="M85.3989 14.2326C85.2439 14.1551 85.0423 14.1163 84.7943 14.1163C84.554 14.1163 84.2865 14.19 83.9919 14.3372C83.6974 14.4768 83.4067 14.6706 83.1199 14.9186C82.5152 15.4458 82.0075 16.0853 81.5966 16.8372C81.1858 17.5892 80.9803 18.283 80.9803 18.9186C80.9803 19.5465 81.2206 19.969 81.7013 20.1861C81.8718 20.2636 82.0811 20.3023 82.3292 20.3023C82.5772 20.3023 82.8369 20.2287 83.1082 20.0814C83.3795 19.9264 83.6509 19.7209 83.9222 19.4651C84.4881 18.9302 84.9842 18.283 85.4105 17.5233C85.8369 16.7558 86.0501 16.0698 86.0501 15.4651C86.0501 14.8605 85.833 14.4496 85.3989 14.2326ZM83.1431 25C80.9261 25 79.0152 24.2984 77.4106 22.8953C75.6974 21.407 74.8408 19.5349 74.8408 17.2791C74.8408 15.0155 75.6431 13.1667 77.2478 11.7326C78.8524 10.2908 80.833 9.56982 83.1896 9.56982C85.5462 9.56982 87.5268 10.2752 89.1315 11.6861C90.7361 13.0892 91.5423 14.969 91.55 17.3256C91.5578 18.8372 91.1741 20.1744 90.3989 21.3372C89.6237 22.5 88.5888 23.3992 87.2943 24.0349C85.9997 24.6705 84.616 24.9922 83.1431 25Z" fill="#FF73B6" stroke="#961352" stroke-width="0.726237"/>
<path d="M96.9123 14.9946C97.0306 15.316 97.4872 15.31 97.597 14.9856L98.9103 11.1032C99.1099 10.5133 99.6634 10.1162 100.286 10.1162H104.019C104.557 10.1162 104.908 10.6814 104.67 11.1641L98.0597 24.5464C97.9202 24.8487 97.6179 24.9999 97.1528 24.9999C96.6876 24.9999 96.3737 24.8487 96.2109 24.5464L89.2625 11.1774C89.0112 10.6939 89.362 10.1162 89.9069 10.1162H94.1033C94.7119 10.1162 95.256 10.4957 95.4663 11.0669L96.9123 14.9946Z" fill="#FF73B6" stroke="#961352" stroke-width="0.726237"/>
<path d="M112.205 14.2562C112.205 13.574 111.887 13.2329 111.252 13.2329C110.523 13.3027 110.05 13.6786 109.833 14.3608C109.724 14.6864 109.647 15.0662 109.6 15.5003C109.592 15.5975 109.582 15.6962 109.57 15.7966C109.513 16.311 109.97 16.7481 110.475 16.635L110.963 16.526C111.561 16.392 112.011 15.8964 112.087 15.2876L112.182 14.5236L112.205 14.2562ZM110.635 19.5468C110.635 19.5468 110.422 19.5468 109.996 19.5468C109.794 19.5468 109.6 19.5391 109.414 19.5236C109.414 20.446 109.907 20.9499 110.891 21.0352C111.162 21.0584 111.426 21.0701 111.682 21.0701C112.341 21.0701 113.166 20.9189 114.159 20.6166C114.394 20.5453 114.624 20.4634 114.849 20.371C115.821 19.9701 117.099 20.4181 117.305 21.4497C117.466 22.2573 117.193 23.1122 116.483 23.5289C114.811 24.5098 112.559 25.0003 109.728 25.0003C107.721 25.0003 105.996 24.415 104.554 23.2445C102.988 21.9654 102.205 20.1941 102.205 17.9306C102.205 16.2251 102.647 14.6941 103.531 13.3376C104.352 12.0973 105.465 11.1554 106.868 10.512C108.271 9.86858 109.786 9.54688 111.414 9.54688C113.523 9.54688 115.116 10.0081 116.193 10.9306C117.279 11.8531 117.817 12.9926 117.81 14.3492C117.81 15.7058 117.162 16.9112 115.868 17.9654C114.573 19.0197 112.829 19.5468 110.635 19.5468Z" fill="#FF73B6" stroke="#961352" stroke-width="0.726237"/>
<path d="M109.663 17.2646C110.146 17.5434 110.713 17.4857 111.206 17.2466C111.702 17.0063 112.161 16.5685 112.489 16.0013C112.816 15.4342 112.966 14.8172 112.926 14.2682C112.887 13.7217 112.653 13.2013 112.17 12.9225C111.687 12.6437 111.119 12.7014 110.626 12.9405C110.131 13.1808 109.672 13.6186 109.344 14.1858C109.017 14.7529 108.867 15.3699 108.907 15.9189C108.946 16.4654 109.18 16.9858 109.663 17.2646Z" fill="white" stroke="#961352" stroke-width="0.726237"/>
</g>
<defs>
<filter id="filter0_d_1368_3779" x="0.542969" y="0.273438" width="125.999" height="35.4531" filterUnits="userSpaceOnUse" color-interpolation-filters="sRGB">
<feFlood flood-opacity="0" result="BackgroundImageFix"/>
<feColorMatrix in="SourceAlpha" type="matrix" values="0 0 0 0 0 0 0 0 0 0 0 0 0 0 0 0 0 0 127 0" result="hardAlpha"/>
<feOffset dx="3" dy="4"/>
<feGaussianBlur stdDeviation="1"/>
<feComposite in2="hardAlpha" operator="out"/>
<feColorMatrix type="matrix" values="0 0 0 0 0.149635 0 0 0 0 0.471263 0 0 0 0 0.704167 0 0 0 0.4 0"/>
<feBlend mode="normal" in2="BackgroundImageFix" result="effect1_dropShadow_1368_3779"/>
<feBlend mode="normal" in="SourceGraphic" in2="effect1_dropShadow_1368_3779" result="shape"/>
</filter>
</defs>
</svg>
