<svg width="156" height="84" viewBox="0 0 156 84" fill="none" xmlns="http://www.w3.org/2000/svg">
<circle cx="78.0003" cy="39.0003" r="17.5833" fill="#FFD589" stroke="#617084"/>
<path d="M78 16.6113V8.00022" stroke="#617084" stroke-width="1.2" stroke-linecap="round"/>
<path d="M100.389 39L109 39" stroke="#617084" stroke-width="1.2" stroke-linecap="round"/>
<path d="M78 70L78 61.3889" stroke="#617084" stroke-width="1.2" stroke-linecap="round"/>
<path d="M47 39L55.6111 39" stroke="#617084" stroke-width="1.2" stroke-linecap="round"/>
<path d="M93.8311 23.1689L98.9977 18.0023" stroke="#617084" stroke-width="1.2" stroke-linecap="round"/>
<path d="M57.002 59.998L62.1686 54.8314" stroke="#617084" stroke-width="1.2" stroke-linecap="round"/>
<path d="M62.1689 23.1689L57.0023 18.0023" stroke="#617084" stroke-width="1.2" stroke-linecap="round"/>
<path d="M98.9971 59.998L93.8304 54.8314" stroke="#617084" stroke-width="1.2" stroke-linecap="round"/>
<path d="M-0.736323 21.4564C3.43516 17.8448 10.5813 20.8433 11.7931 31.6518C11.6716 30.1455 15.4092 29.3242 17.7685 31.7065C20.1562 34.1175 18.3654 36.5292 20.1562 37.7351C21.947 38.941 23.7378 35.9263 26.7224 37.7351C29.7071 39.544 29.1102 41.9558 32.6917 41.3528C36.5338 40.706 36.2362 49.2778 26.7224 47.3823C25.1081 50.3971 19.5593 51 17.7685 46.1764C17.5695 47.7843 16.0971 51 11.7992 51C7.5013 51 6.02888 48.5882 5.8299 47.3823C5.034 48.7892 2.60648 51.3618 -0.736323 50.3971C-1.21387 49.9147 -0.9353 30.9023 -0.736323 21.4564Z" fill="white" stroke="#A1B6CC" stroke-width="1.2" stroke-linecap="round" stroke-linejoin="round"/>
<path d="M157.786 2.08053C154.399 -0.599047 148.597 1.62568 147.614 9.64489C147.712 8.52733 144.678 7.91794 142.762 9.68546C140.824 11.4742 142.278 13.2636 140.824 14.1583C139.37 15.053 137.916 12.8163 135.493 14.1583C133.07 15.5004 133.554 17.2898 130.647 16.8424C127.457 16.3518 128.811 24 135.493 21.3159C136.109 24 141.308 24 142.762 20.4212C142.924 21.6141 144.119 24 147.609 24C151.098 24 152.293 22.2106 152.455 21.3159C153.101 22.3597 155.072 24.2684 157.786 23.5527C158.174 23.1948 157.947 9.08879 157.786 2.08053Z" fill="white" stroke="#A1B6CC" stroke-width="1.2" stroke-linecap="round" stroke-linejoin="round"/>
<path d="M101.667 77.2903C98.4444 78.9221 92 79.7379 92 74.8427C92 70.9266 97.9074 71.5793 100.861 72.3951C100.861 69.9473 101.828 65.0517 105.694 65.0517C109.29 65.0517 110.842 66.9328 111.258 68.0713C110.534 65.5573 110.735 60.9724 116.972 60.9724C117.509 59.0687 119.711 55.4245 124.222 56.0772C129.861 56.8931 130.667 61.7883 130.667 65.0517C133.083 62.8759 138.561 60.319 141.139 67.4986C144.093 66.4117 150 65.8693 150 72.3951C150 80.5524 140.333 78.9234 137.917 77.2903C137.38 79.1936 134.856 82.8368 129.056 82.1841C123.256 81.5314 120.731 79.7365 120.194 78.9207C118.852 80.5524 116.972 83 111.333 83C105.694 83 103.278 78.9216 101.667 77.2903Z" fill="white" stroke="#A1B6CC" stroke-width="1.2" stroke-linecap="round" stroke-linejoin="round"/>
</svg>
