<svg width="64" height="42" viewBox="0 0 64 42" fill="none" xmlns="http://www.w3.org/2000/svg">
<mask id="path-1-inside-1_14_2" fill="white">
<path fill-rule="evenodd" clip-rule="evenodd" d="M7.16796 10.7261C7.16796 11.2903 7.2311 11.8404 7.35101 12.3704C6.60826 11.9169 5.72523 11.6539 4.77779 11.6539C2.13882 11.6539 -0.000476837 13.694 -0.000476837 16.2105C-0.000476837 18.5347 1.82428 20.4524 4.18213 20.732V20.7684H26.8789V20.7624C30.2731 20.6862 33 18.0386 33 14.7836C33 11.4806 30.1922 8.80306 26.7285 8.80306C25.4961 8.80306 24.3466 9.14207 23.3772 9.72765C22.8635 5.91325 19.4457 2.96564 15.306 2.96564C10.8115 2.96564 7.16796 6.4401 7.16796 10.7261Z"/>
</mask>
<path fill-rule="evenodd" clip-rule="evenodd" d="M7.16796 10.7261C7.16796 11.2903 7.2311 11.8404 7.35101 12.3704C6.60826 11.9169 5.72523 11.6539 4.77779 11.6539C2.13882 11.6539 -0.000476837 13.694 -0.000476837 16.2105C-0.000476837 18.5347 1.82428 20.4524 4.18213 20.732V20.7684H26.8789V20.7624C30.2731 20.6862 33 18.0386 33 14.7836C33 11.4806 30.1922 8.80306 26.7285 8.80306C25.4961 8.80306 24.3466 9.14207 23.3772 9.72765C22.8635 5.91325 19.4457 2.96564 15.306 2.96564C10.8115 2.96564 7.16796 6.4401 7.16796 10.7261Z" fill="#FAFAFA"/>
<path d="M7.35101 12.3704L8.32636 12.1498L8.84821 14.4564L6.82986 13.2239L7.35101 12.3704ZM4.18213 20.732L4.29989 19.739L5.18213 19.8436V20.732H4.18213ZM4.18213 20.7684V21.7684H3.18213V20.7684H4.18213ZM26.8789 20.7684H27.8789V21.7684H26.8789V20.7684ZM26.8789 20.7624H25.8789V19.7846L26.8565 19.7627L26.8789 20.7624ZM23.3772 9.72765L23.8942 10.5836L22.5896 11.3717L22.3862 9.86113L23.3772 9.72765ZM6.37566 12.5911C6.23951 11.9893 6.16796 11.3651 6.16796 10.7261H8.16796C8.16796 11.2154 8.2227 11.6916 8.32636 12.1498L6.37566 12.5911ZM4.77779 10.6539C5.91194 10.6539 6.9749 10.9691 7.87216 11.517L6.82986 13.2239C6.24162 12.8647 5.53852 12.6539 4.77779 12.6539V10.6539ZM-1.00048 16.2105C-1.00048 13.0975 1.63184 10.6539 4.77779 10.6539V12.6539C2.64581 12.6539 0.999523 14.2905 0.999523 16.2105H-1.00048ZM4.06438 21.7251C1.24699 21.391 -1.00048 19.0842 -1.00048 16.2105H0.999523C0.999523 17.9852 2.40157 19.5139 4.29989 19.739L4.06438 21.7251ZM5.18213 20.732V20.7684H3.18213V20.732H5.18213ZM4.18213 19.7684H26.8789V21.7684H4.18213V19.7684ZM25.8789 20.7684V20.7624H27.8789V20.7684H25.8789ZM34 14.7836C34 18.6261 30.7938 21.6748 26.9013 21.7622L26.8565 19.7627C29.7523 19.6977 32 17.451 32 14.7836H34ZM26.7285 7.80306C30.6992 7.80306 34 10.8841 34 14.7836H32C32 12.0771 29.6852 9.80306 26.7285 9.80306V7.80306ZM22.8602 8.87168C23.9832 8.19333 25.311 7.80306 26.7285 7.80306V9.80306C25.6811 9.80306 24.7101 10.0908 23.8942 10.5836L22.8602 8.87168ZM15.306 1.96564C19.9163 1.96564 23.7837 5.25435 24.3683 9.59416L22.3862 9.86113C21.9432 6.57216 18.975 3.96564 15.306 3.96564V1.96564ZM6.16796 10.7261C6.16796 5.84358 10.3045 1.96564 15.306 1.96564V3.96564C11.3185 3.96564 8.16796 7.03662 8.16796 10.7261H6.16796Z" fill="#617084" mask="url(#path-1-inside-1_14_2)"/>
<path fill-rule="evenodd" clip-rule="evenodd" d="M40.7705 2.53412C36.0397 3.09631 32.3712 7.12154 32.3712 12.0036C32.3712 17.2705 36.6409 21.5402 41.9078 21.5402C44.6958 21.5402 47.2043 20.3438 48.9481 18.4365C47.7801 25.5514 41.6024 30.9798 34.1569 30.9798C25.8782 30.9798 19.167 24.2686 19.167 15.9899C19.167 7.7112 25.8782 1 34.1569 1C36.5307 1 38.7757 1.5518 40.7705 2.53412Z" fill="#FFD589"/>
<path d="M40.7705 2.53412L40.8295 3.03062C41.0494 3.00449 41.2259 2.83681 41.2633 2.61854C41.3007 2.40026 41.19 2.18339 40.9914 2.08556L40.7705 2.53412ZM48.9481 18.4365L49.4415 18.5175C49.4773 18.2991 49.3654 18.0832 49.1663 17.9866C48.9672 17.8901 48.7284 17.9358 48.5791 18.0991L48.9481 18.4365ZM32.8712 12.0036C32.8712 7.37786 36.3473 3.56328 40.8295 3.03062L40.7115 2.03761C35.7321 2.62934 31.8712 6.86521 31.8712 12.0036H32.8712ZM41.9078 21.0402C36.917 21.0402 32.8712 16.9944 32.8712 12.0036H31.8712C31.8712 17.5467 36.3647 22.0402 41.9078 22.0402V21.0402ZM48.5791 18.0991C46.926 19.9072 44.5496 21.0402 41.9078 21.0402V22.0402C44.842 22.0402 47.4826 20.7805 49.3171 18.7739L48.5791 18.0991ZM48.4547 18.3555C47.3257 25.2327 41.3536 30.4798 34.1569 30.4798V31.4798C41.8512 31.4798 48.2344 25.8701 49.4415 18.5175L48.4547 18.3555ZM34.1569 30.4798C26.1543 30.4798 19.667 23.9924 19.667 15.9899H18.667C18.667 24.5447 25.602 31.4798 34.1569 31.4798V30.4798ZM19.667 15.9899C19.667 7.98734 26.1543 1.5 34.1569 1.5V0.5C25.602 0.5 18.667 7.43506 18.667 15.9899H19.667ZM34.1569 1.5C36.4524 1.5 38.622 2.03345 40.5496 2.98268L40.9914 2.08556C38.9294 1.07014 36.609 0.5 34.1569 0.5V1.5Z" fill="#617084"/>
<mask id="path-5-inside-2_14_2" fill="white">
<path fill-rule="evenodd" clip-rule="evenodd" d="M55.6108 29.1359C55.6108 29.8269 55.5372 30.5007 55.3975 31.1499C56.2663 30.5944 57.2989 30.2724 58.4066 30.2724C61.4959 30.2724 64.0002 32.7767 64.0002 35.8659C64.0002 38.7184 61.865 41.0722 59.1057 41.4162V41.4616H32.5362V41.4557C28.5627 41.3625 25.3701 38.1122 25.3701 34.1162C25.3701 30.0615 28.657 26.7746 32.7117 26.7746C34.1548 26.7746 35.5007 27.191 36.6358 27.9102C37.2372 23.2278 41.2382 19.6094 46.0842 19.6094C51.3456 19.6094 55.6108 23.8746 55.6108 29.1359Z"/>
</mask>
<path fill-rule="evenodd" clip-rule="evenodd" d="M55.6108 29.1359C55.6108 29.8269 55.5372 30.5007 55.3975 31.1499C56.2663 30.5944 57.2989 30.2724 58.4066 30.2724C61.4959 30.2724 64.0002 32.7767 64.0002 35.8659C64.0002 38.7184 61.865 41.0722 59.1057 41.4162V41.4616H32.5362V41.4557C28.5627 41.3625 25.3701 38.1122 25.3701 34.1162C25.3701 30.0615 28.657 26.7746 32.7117 26.7746C34.1548 26.7746 35.5007 27.191 36.6358 27.9102C37.2372 23.2278 41.2382 19.6094 46.0842 19.6094C51.3456 19.6094 55.6108 23.8746 55.6108 29.1359Z" fill="#FAFAFA"/>
<path d="M55.3975 31.1499L54.4199 30.9395L53.9151 33.2847L55.9362 31.9924L55.3975 31.1499ZM59.1057 41.4162L58.982 40.4239L58.1057 40.5332V41.4162H59.1057ZM59.1057 41.4616V42.4616H60.1057V41.4616H59.1057ZM32.5362 41.4616H31.5362V42.4616H32.5362V41.4616ZM32.5362 41.4557H33.5362V40.4788L32.5597 40.4559L32.5362 41.4557ZM36.6358 27.9102L36.1006 28.7549L37.4275 29.5957L37.6276 28.0376L36.6358 27.9102ZM56.3751 31.3603C56.5296 30.6424 56.6108 29.8981 56.6108 29.1359H54.6108C54.6108 29.7557 54.5448 30.359 54.4199 30.9395L56.3751 31.3603ZM58.4066 29.2724C57.1023 29.2724 55.8837 29.6521 54.8588 30.3074L55.9362 31.9924C56.649 31.5367 57.4954 31.2724 58.4066 31.2724V29.2724ZM65.0002 35.8659C65.0002 32.2244 62.0482 29.2724 58.4066 29.2724V31.2724C60.9436 31.2724 63.0002 33.329 63.0002 35.8659H65.0002ZM59.2294 42.4086C62.4831 42.0029 65.0002 39.2291 65.0002 35.8659H63.0002C63.0002 38.2077 61.247 40.1415 58.982 40.4239L59.2294 42.4086ZM58.1057 41.4162V41.4616H60.1057V41.4162H58.1057ZM59.1057 40.4616H32.5362V42.4616H59.1057V40.4616ZM33.5362 41.4616V41.4557H31.5362V41.4616H33.5362ZM24.3701 34.1162C24.3701 38.6566 27.9975 42.3495 32.5128 42.4554L32.5597 40.4559C29.1278 40.3755 26.3701 37.5677 26.3701 34.1162H24.3701ZM32.7117 25.7746C28.1048 25.7746 24.3701 29.5092 24.3701 34.1162H26.3701C26.3701 30.6138 29.2093 27.7746 32.7117 27.7746V25.7746ZM37.171 27.0655C35.8806 26.2479 34.3499 25.7746 32.7117 25.7746V27.7746C33.9598 27.7746 35.1209 28.1341 36.1006 28.7549L37.171 27.0655ZM46.0842 18.6094C40.7287 18.6094 36.3086 22.6079 35.6439 27.7828L37.6276 28.0376C38.1658 23.8477 41.7476 20.6094 46.0842 20.6094V18.6094ZM56.6108 29.1359C56.6108 23.3223 51.8979 18.6094 46.0842 18.6094V20.6094C50.7933 20.6094 54.6108 24.4268 54.6108 29.1359H56.6108Z" fill="#617084" mask="url(#path-5-inside-2_14_2)"/>
</svg>
