<svg width="27" height="16" viewBox="0 0 27 16" fill="none" xmlns="http://www.w3.org/2000/svg">
<mask id="path-1-inside-1_199_2582" fill="white">
<path fill-rule="evenodd" clip-rule="evenodd" d="M5.8641 6.65845C5.8641 7.14158 5.91555 7.61269 6.01328 8.06659C5.40584 7.67799 4.68385 7.45271 3.90924 7.45271C1.75006 7.45271 -0.000307083 9.20307 -0.000307083 11.3623C-0.000307083 13.3559 1.49201 15.0011 3.42054 15.2416V15.2714H3.84931C3.86925 15.2717 3.88923 15.2718 3.90924 15.2718C3.92926 15.2718 3.94924 15.2717 3.96918 15.2714H21.9909V15.2695C24.7684 15.2046 27 12.9327 27 10.1397C27 7.30573 24.7026 5.00838 21.8687 5.00838C20.8602 5.00838 19.9197 5.29932 19.1264 5.80185C18.7061 2.52908 15.9097 0 12.5225 0C8.84519 0 5.8641 2.98109 5.8641 6.65845Z"/>
</mask>
<path fill-rule="evenodd" clip-rule="evenodd" d="M5.8641 6.65845C5.8641 7.14158 5.91555 7.61269 6.01328 8.06659C5.40584 7.67799 4.68385 7.45271 3.90924 7.45271C1.75006 7.45271 -0.000307083 9.20307 -0.000307083 11.3623C-0.000307083 13.3559 1.49201 15.0011 3.42054 15.2416V15.2714H3.84931C3.86925 15.2717 3.88923 15.2718 3.90924 15.2718C3.92926 15.2718 3.94924 15.2717 3.96918 15.2714H21.9909V15.2695C24.7684 15.2046 27 12.9327 27 10.1397C27 7.30573 24.7026 5.00838 21.8687 5.00838C20.8602 5.00838 19.9197 5.29932 19.1264 5.80185C18.7061 2.52908 15.9097 0 12.5225 0C8.84519 0 5.8641 2.98109 5.8641 6.65845Z" fill="#FAFAFA"/>
<path d="M6.01328 8.06659L7.1864 7.81402L7.79256 10.6295L5.36659 9.07743L6.01328 8.06659ZM3.42054 15.2416L3.56903 14.0508L4.62054 14.1819V15.2416H3.42054ZM3.42054 15.2714V16.4714H2.22054V15.2714H3.42054ZM3.84931 15.2714V14.0714H3.85831L3.86732 14.0715L3.84931 15.2714ZM3.96918 15.2714L3.95117 14.0715L3.96017 14.0714H3.96918V15.2714ZM21.9909 15.2714H23.1909V16.4714H21.9909V15.2714ZM21.9909 15.2695H20.7909V14.0972L21.9629 14.0698L21.9909 15.2695ZM19.1264 5.80185L19.7686 6.81555L18.1763 7.82429L17.9362 5.95471L19.1264 5.80185ZM4.84016 8.31917C4.72467 7.78277 4.66409 7.22701 4.66409 6.65845H7.0641C7.0641 7.05614 7.10643 7.4426 7.1864 7.81402L4.84016 8.31917ZM3.90924 6.25271C4.91981 6.25271 5.86522 6.54732 6.65996 7.05575L5.36659 9.07743C4.94646 8.80865 4.44789 8.65271 3.90924 8.65271V6.25271ZM-1.20031 11.3623C-1.20031 8.54033 1.08732 6.25271 3.90924 6.25271V8.65271C2.4128 8.65271 1.19969 9.86581 1.19969 11.3623H-1.20031ZM3.27205 16.4323C0.750345 16.1179 -1.20031 13.9688 -1.20031 11.3623H1.19969C1.19969 12.7431 2.23367 13.8843 3.56903 14.0508L3.27205 16.4323ZM4.62054 15.2416V15.2714H2.22054V15.2416H4.62054ZM3.42054 14.0714H3.84931V16.4714H3.42054V14.0714ZM3.90924 16.4718C3.88321 16.4718 3.85722 16.4716 3.83129 16.4712L3.86732 14.0715C3.88128 14.0717 3.89525 14.0718 3.90924 14.0718V16.4718ZM3.9872 16.4712C3.96127 16.4716 3.93528 16.4718 3.90924 16.4718V14.0718C3.92324 14.0718 3.93721 14.0717 3.95117 14.0715L3.9872 16.4712ZM3.96918 14.0714H21.9909V16.4714H3.96918V14.0714ZM20.7909 15.2714V15.2695H23.1909V15.2714H20.7909ZM28.2 10.1397C28.2 13.5861 25.4465 16.3891 22.0189 16.4692L21.9629 14.0698C24.0902 14.0201 25.8 12.2794 25.8 10.1397H28.2ZM21.8687 3.80838C25.3654 3.80838 28.2 6.64299 28.2 10.1397H25.8C25.8 7.96847 24.0399 6.20838 21.8687 6.20838V3.80838ZM18.4842 4.78815C19.4639 4.16753 20.6262 3.80838 21.8687 3.80838V6.20838C21.0942 6.20838 20.3754 6.43111 19.7686 6.81555L18.4842 4.78815ZM12.5225 -1.2C16.521 -1.2 19.8204 1.78518 20.3166 5.64899L17.9362 5.95471C17.5918 3.27298 15.2983 1.2 12.5225 1.2V-1.2ZM4.66409 6.65845C4.66409 2.31835 8.18244 -1.2 12.5225 -1.2V1.2C9.50793 1.2 7.0641 3.64383 7.0641 6.65845H4.66409Z" fill="#617084" mask="url(#path-1-inside-1_199_2582)"/>
</svg>
